<?xml version="1.0" standalone="no"?>
<!DOCTYPE svg PUBLIC "-//W3C//DTD SVG 20010904//EN"
 "http://www.w3.org/TR/2001/REC-SVG-20010904/DTD/svg10.dtd">
<svg version="1.0" xmlns="http://www.w3.org/2000/svg"
 width="200.000000pt" height="200.000000pt" viewBox="0 0 200.000000 200.000000"
 preserveAspectRatio="xMidYMid meet">

<g transform="translate(0.000000,200.000000) scale(0.100000,-0.100000)"
fill="#000000" stroke="none">
<path d="M1180 1954 c-180 -38 -357 -177 -439 -344 -95 -195 -94 -388 4 -585
l45 -90 -366 -366 c-343 -343 -366 -368 -371 -407 -5 -38 -2 -45 31 -78 33
-33 40 -36 78 -31 39 5 64 28 407 371 l366 366 90 -45 c151 -76 325 -94 475
-49 166 49 323 181 399 334 94 193 94 387 0 580 -59 119 -170 230 -289 289
-139 68 -284 87 -430 55z m258 -119 c193 -46 351 -203 397 -396 88 -375 -258
-722 -633 -634 -96 23 -179 70 -253 144 -74 74 -121 157 -144 253 -88 374 259
721 633 633z"/>
</g>
</svg>
